<?xml version="1.0" standalone="no"?>
<!DOCTYPE svg PUBLIC "-//W3C//DTD SVG 20010904//EN"
 "http://www.w3.org/TR/2001/REC-SVG-20010904/DTD/svg10.dtd">
<svg version="1.0" xmlns="http://www.w3.org/2000/svg"
 width="742.000000pt" height="742.000000pt" viewBox="0 0 742.000000 742.000000"
 preserveAspectRatio="xMidYMid meet">
<metadata>
Created by potrace 1.14, written by Peter Selinger 2001-2017
</metadata>
<g transform="translate(0.000000,742.000000) scale(0.100000,-0.100000)"
fill="#000000" stroke="none">
<path d="M3380 7387 c-23 -11 -57 -33 -74 -49 -17 -16 -72 -63 -121 -106 -50
-42 -101 -89 -114 -104 -47 -58 -66 -156 -48 -249 11 -57 68 -131 134 -172 90
-57 189 -200 242 -352 24 -66 66 -228 75 -290 4 -22 9 -47 11 -56 4 -11 -12
-20 -67 -38 -98 -31 -242 -101 -325 -158 -91 -63 -246 -221 -306 -311 -99
-148 -171 -339 -193 -507 -3 -28 -13 -156 -18 -240 -3 -38 -7 -81 -10 -95 -3
-14 -8 -34 -10 -45 -11 -56 -52 -157 -86 -215 -93 -157 -137 -208 -497 -590
-34 -36 -81 -89 -104 -117 -23 -29 -46 -53 -51 -53 -4 0 -8 -4 -8 -10 0 -5
-26 -45 -58 -88 -32 -43 -80 -116 -107 -163 -26 -46 -54 -91 -60 -99 -7 -8
-37 -78 -68 -155 -54 -134 -108 -319 -121 -415 -4 -25 -9 -58 -13 -75 -10 -50
-25 -258 -25 -350 0 -92 15 -289 26 -355 3 -14 7 -42 10 -62 3 -20 9 -54 15
-75 5 -21 12 -51 14 -68 12 -74 113 -350 174 -474 37 -75 70 -138 73 -141 3
-3 30 -43 60 -90 30 -47 65 -96 77 -110 13 -14 23 -30 23 -37 0 -7 4 -13 8
-13 5 0 41 -39 82 -86 61 -72 100 -112 184 -189 57 -52 188 -153 261 -201 50
-32 92 -62 95 -65 12 -13 272 -139 355 -172 105 -41 241 -86 282 -93 15 -3 44
-10 63 -16 34 -11 213 -14 255 -4 47 11 139 47 245 96 l113 53 111 -58 c61
-32 145 -71 187 -85 68 -24 88 -27 180 -24 115 3 114 3 250 38 228 58 526 181
651 268 14 10 29 18 32 18 10 0 197 137 250 182 127 111 267 261 352 378 99
137 208 342 254 480 35 104 16 218 -49 287 -72 76 -142 100 -286 96 -60 -1
-128 4 -170 13 -38 8 -81 17 -95 20 -94 18 -265 97 -367 170 -313 224 -492
604 -459 979 30 337 202 633 481 822 128 87 165 150 160 275 -3 85 -5 90 -87
211 -63 93 -144 254 -153 306 -3 16 -10 42 -16 57 -13 36 -20 96 -24 224 -4
110 -11 180 -20 210 -3 10 -8 31 -10 46 -7 53 -13 70 -54 175 -39 100 -106
220 -158 284 -14 17 -67 73 -119 127 -52 53 -91 98 -87 101 4 2 26 10 48 17
71 22 137 60 255 145 63 45 129 89 145 97 49 25 94 16 181 -34 92 -55 220
-117 253 -123 12 -2 30 -6 39 -9 142 -44 341 -13 409 63 66 74 93 191 66 280
-11 38 -134 287 -156 316 -4 5 -51 78 -105 160 -54 83 -106 156 -115 164 -9 7
-17 17 -17 21 0 5 -15 23 -32 42 -18 19 -58 61 -89 93 -207 221 -397 337 -623
380 -68 13 -264 14 -316 1 -14 -3 -35 -8 -46 -10 -45 -9 -176 -67 -232 -102
-88 -56 -230 -184 -267 -240 l-17 -27 -28 51 c-35 65 -135 207 -179 254 -52
57 -111 82 -202 83 -57 2 -86 -3 -119 -18z m1312 -322 c81 -7 177 -47 283
-118 49 -33 219 -195 269 -257 48 -59 106 -140 106 -148 0 -6 3 -12 8 -14 19
-8 199 -314 190 -324 -8 -7 -69 18 -133 53 -112 63 -262 134 -291 139 -42 6
-135 5 -167 -1 -82 -16 -202 -78 -303 -156 -28 -21 -56 -39 -62 -39 -7 0 -12
-4 -12 -9 0 -5 -32 -26 -71 -45 -92 -46 -140 -47 -218 -6 -31 17 -73 45 -93
63 -20 17 -56 48 -80 67 -24 19 -58 49 -76 67 -19 18 -37 33 -41 33 -4 0 -18
12 -31 27 l-23 26 48 96 c127 258 295 446 460 516 42 18 175 45 187 38 4 -2
27 -5 50 -8z m-1117 -160 c47 -78 68 -122 130 -270 13 -31 42 -128 48 -161 2
-10 9 -37 15 -59 6 -22 14 -62 17 -90 8 -58 11 -76 20 -127 11 -66 -2 -41 -19
35 -9 39 -18 82 -21 95 -2 12 -6 26 -9 30 -3 5 -7 19 -10 33 -17 90 -115 303
-177 386 -21 29 -39 54 -39 57 0 3 -23 27 -51 53 -28 26 -58 55 -66 63 -14 13
-11 18 28 52 l44 38 18 -23 c10 -12 42 -62 72 -112z m242 -817 c-3 -8 -6 -5
-6 6 -1 11 2 17 5 13 3 -3 4 -12 1 -19z m103 -413 c284 -54 518 -234 634 -487
54 -116 77 -217 82 -358 1 -52 5 -120 8 -150 5 -52 8 -67 21 -130 3 -14 7 -34
9 -45 8 -41 69 -202 98 -260 17 -33 51 -91 75 -129 24 -38 41 -72 36 -75 -4
-4 -36 -29 -71 -57 -59 -46 -147 -130 -208 -199 -50 -57 -155 -224 -199 -317
-94 -199 -128 -363 -127 -608 0 -80 2 -168 5 -196 7 -67 49 -233 80 -315 29
-78 136 -289 157 -309 3 -3 30 -36 61 -75 206 -256 480 -430 791 -504 101 -24
185 -35 261 -34 31 1 57 -1 57 -3 0 -2 -21 -45 -46 -95 -48 -97 -133 -231
-182 -289 -17 -19 -41 -48 -54 -64 -55 -68 -107 -121 -168 -169 -36 -29 -66
-55 -68 -59 -2 -5 -10 -8 -18 -8 -8 0 -14 -4 -14 -9 0 -12 -148 -109 -252
-165 -117 -63 -298 -136 -403 -162 -5 -1 -53 -14 -106 -28 -136 -36 -173 -31
-306 39 -179 94 -206 102 -308 100 -97 -3 -120 -10 -319 -105 -101 -48 -160
-56 -234 -33 -26 8 -57 16 -69 19 -90 18 -493 194 -493 216 0 4 -5 8 -10 8
-20 0 -214 136 -289 204 -89 79 -242 243 -250 267 -1 5 -14 22 -28 37 -93 101
-272 469 -307 633 -3 13 -10 44 -16 69 -12 46 -14 60 -25 140 -3 25 -8 52 -11
60 -21 61 -20 384 1 520 3 19 7 46 9 60 3 14 7 45 11 70 13 83 76 272 125 377
97 206 232 387 486 653 85 89 152 160 224 239 37 41 140 182 174 238 71 120
136 279 152 378 6 33 8 49 19 115 3 25 8 93 10 150 4 124 9 164 36 249 21 67
89 209 111 232 7 8 31 37 52 66 36 48 137 139 184 167 65 38 164 86 208 100
71 23 89 27 174 33 41 3 77 7 78 8 6 5 111 -2 152 -10z"/>
</g>
</svg>
